<?xml version="1.0" encoding="utf-8"?>
<!-- Generator: Adobe Illustrator 25.2.3, SVG Export Plug-In . SVG Version: 6.00 Build 0)  -->
<svg version="1.2" baseProfile="tiny-ps" id="Layer_1" xmlns="http://www.w3.org/2000/svg" xmlns:xlink="http://www.w3.org/1999/xlink"
	  viewBox="0 0 50 50" xml:space="preserve">
	  <title>Orion Labs</title>
<radialGradient id="SVGID_1_" cx="25" cy="25" r="25" gradientUnits="userSpaceOnUse">
	<stop  offset="0" style="stop-color:#2E3192"/>
	<stop  offset="1" style="stop-color:#262262"/>
</radialGradient>
<rect y="0" fill="url(#SVGID_1_)" width="50" height="50"/>
<g>
	<g>
		<g>
			<path fill="#FFC82B" d="M27.21,28.45c0.32,0.08,0.56,0.36,0.56,0.71c0,0.4-0.33,0.73-0.73,0.73c-0.4,0-0.73-0.33-0.73-0.73
				c0-0.4,0.33-0.73,0.73-0.73C27.1,28.43,27.15,28.44,27.21,28.45z"/>
		</g>
		<g>
			<path fill="#FCD770" d="M38.68,28.52c0.11-0.06,0.23-0.09,0.35-0.09c0.4,0,0.73,0.33,0.73,0.73c0,0.4-0.33,0.73-0.73,0.73
				c-0.4,0-0.73-0.33-0.73-0.73C38.31,28.89,38.46,28.65,38.68,28.52z"/>
		</g>
		<g>
			<path fill="#FFC82B" d="M40.25,22.08c0.15,0.13,0.24,0.32,0.24,0.53c0,0.4-0.33,0.73-0.73,0.73c-0.4,0-0.73-0.33-0.73-0.73
				c0-0.4,0.33-0.73,0.73-0.73C39.95,21.89,40.12,21.96,40.25,22.08z"/>
		</g>
		<g>
			<path fill="#FCD770" d="M41.94,15.35c0.4,0,0.73,0.33,0.73,0.73c0,0.4-0.33,0.73-0.73,0.73c-0.01,0-0.01,0-0.02,0
				c-0.39-0.01-0.71-0.33-0.71-0.73c0-0.39,0.31-0.71,0.69-0.73C41.92,15.35,41.93,15.35,41.94,15.35z"/>
		</g>
		<g>
			<path fill="#FDE9A7" d="M39.2,10.03c-0.13,0.14-0.32,0.23-0.53,0.23c-0.4,0-0.73-0.33-0.73-0.73s0.33-0.73,0.73-0.73
				s0.73,0.33,0.73,0.73C39.4,9.72,39.32,9.9,39.2,10.03z"/>
		</g>
		<g>
			<path fill="#FFC82B" d="M31.76,10.98c0.4,0,0.73,0.33,0.73,0.73c0,0.17-0.06,0.33-0.16,0.45c-0.13,0.17-0.34,0.28-0.57,0.28
				c-0.23,0-0.43-0.1-0.56-0.27c-0.11-0.13-0.17-0.29-0.17-0.46C31.04,11.31,31.36,10.98,31.76,10.98z"/>
		</g>
		<g>
			<path fill="#FDE9A7" d="M37.22,15.35c0.4,0,0.73,0.33,0.73,0.73c0,0.4-0.33,0.73-0.73,0.73c-0.07,0-0.13-0.01-0.19-0.03v0
				c-0.31-0.08-0.53-0.36-0.53-0.7c0-0.17,0.06-0.33,0.16-0.45C36.78,15.45,36.99,15.35,37.22,15.35z"/>
		</g>
		<g>
			<path fill="#FFC82B" d="M35.75,23.25c-0.11,0.06-0.23,0.09-0.35,0.09c-0.4,0-0.73-0.33-0.73-0.73c0-0.02,0-0.04,0-0.05
				c0.03-0.38,0.34-0.68,0.72-0.68c0.07,0,0.13,0.01,0.19,0.03v0c0.31,0.08,0.53,0.36,0.53,0.7C36.12,22.89,35.97,23.12,35.75,23.25
				z"/>
		</g>
		<g>
			<path fill="#FCD770" d="M30.31,21.53c0.4,0,0.73,0.33,0.73,0.73c0,0.02,0,0.04,0,0.05c-0.03,0.38-0.34,0.68-0.72,0.68
				c-0.12,0-0.23-0.03-0.32-0.08c-0.24-0.12-0.4-0.37-0.4-0.65c0-0.22,0.1-0.41,0.25-0.55C29.96,21.59,30.13,21.53,30.31,21.53z"/>
		</g>
		<g>
			<path fill="#FDE9A7" d="M25.66,16.08c0.2,0.02,0.37,0.12,0.49,0.26c0.11,0.13,0.17,0.29,0.17,0.46c0,0.22-0.1,0.41-0.25,0.55
				c-0.13,0.11-0.29,0.18-0.48,0.18c-0.4,0-0.73-0.33-0.73-0.73c0-0.28,0.16-0.53,0.4-0.65c0.1-0.05,0.21-0.08,0.32-0.08
				C25.61,16.07,25.63,16.07,25.66,16.08z"/>
		</g>
		<g>
			<path fill="#FCD770" d="M26.24,10.25c-0.37-0.04-0.65-0.35-0.65-0.72c0-0.4,0.33-0.73,0.73-0.73c0.4,0,0.73,0.33,0.73,0.73
				s-0.33,0.73-0.73,0.73C26.28,10.26,26.26,10.26,26.24,10.25z"/>
		</g>
		<g>
			<path fill="#FDE9A7" d="M21.58,8.08c0.4,0,0.73,0.33,0.73,0.73c0,0.28-0.16,0.53-0.4,0.65c-0.1,0.05-0.21,0.08-0.32,0.08
				c-0.4,0-0.73-0.33-0.73-0.73S21.18,8.08,21.58,8.08z"/>
		</g>
	</g>
	<g>
		<g>
			<path fill="#010101" d="M31.76,12.8c-0.6,0-1.09-0.49-1.09-1.09c0-0.6,0.49-1.09,1.09-1.09c0.6,0,1.09,0.49,1.09,1.09
				C32.85,12.31,32.36,12.8,31.76,12.8z M31.76,11.35c-0.2,0-0.36,0.16-0.36,0.36c0,0.2,0.16,0.36,0.36,0.36
				c0.2,0,0.36-0.16,0.36-0.36C32.13,11.51,31.96,11.35,31.76,11.35z"/>
		</g>
		<g>
			<path fill="#010101" d="M25.58,17.89c-0.6,0-1.09-0.49-1.09-1.09c0-0.6,0.49-1.09,1.09-1.09c0.6,0,1.09,0.49,1.09,1.09
				C26.67,17.4,26.18,17.89,25.58,17.89z M25.58,16.44c-0.2,0-0.36,0.16-0.36,0.36c0,0.2,0.16,0.36,0.36,0.36
				c0.2,0,0.36-0.16,0.36-0.36C25.95,16.6,25.78,16.44,25.58,16.44z"/>
		</g>
		<g>
			<path fill="#010101" d="M37.22,17.16c-0.6,0-1.09-0.49-1.09-1.09c0-0.6,0.49-1.09,1.09-1.09s1.09,0.49,1.09,1.09
				C38.31,16.67,37.82,17.16,37.22,17.16z M37.22,15.71c-0.2,0-0.36,0.16-0.36,0.36c0,0.2,0.16,0.36,0.36,0.36s0.36-0.16,0.36-0.36
				C37.58,15.87,37.42,15.71,37.22,15.71z"/>
		</g>
		<g>
			<path fill="#010101" d="M41.94,17.16c-0.6,0-1.09-0.49-1.09-1.09c0-0.6,0.49-1.09,1.09-1.09s1.09,0.49,1.09,1.09
				C43.03,16.67,42.54,17.16,41.94,17.16z M41.94,15.71c-0.2,0-0.36,0.16-0.36,0.36c0,0.2,0.16,0.36,0.36,0.36s0.36-0.16,0.36-0.36
				C42.3,15.87,42.14,15.71,41.94,15.71z"/>
		</g>
		<g>
			
				<rect x="32.49" y="20.61" transform="matrix(0.0712 -0.9975 0.9975 0.0712 8.1365 53.6063)" fill="#010101" width="0.73" height="3.65"/>
		</g>
		<g>
			
				<rect x="27.58" y="16.64" transform="matrix(0.7557 -0.6549 0.6549 0.7557 -5.9609 23.0708)" fill="#010101" width="0.73" height="5.77"/>
		</g>
		<g>
			
				<rect x="25.39" y="13.89" transform="matrix(0.7717 -0.6359 0.6359 0.7717 -2.5208 21.4881)" fill="#010101" width="6.55" height="0.73"/>
		</g>
		<g>
			
				<rect x="34.13" y="11.12" transform="matrix(0.6247 -0.7808 0.7808 0.6247 2.0954 32.1436)" fill="#010101" width="0.73" height="5.53"/>
		</g>
		<g>
			
				<rect x="33.64" y="18.98" transform="matrix(0.2675 -0.9636 0.9636 0.2675 7.9558 49.1544)" fill="#010101" width="5.34" height="0.73"/>
		</g>
		<g>
			
				<rect x="25.49" y="25.31" transform="matrix(0.4472 -0.8944 0.8944 0.4472 -7.1581 39.772)" fill="#010101" width="6.21" height="0.73"/>
		</g>
		<g>
			
				<rect x="36.85" y="22.87" transform="matrix(0.8742 -0.4856 0.4856 0.8742 -7.8889 21.3313)" fill="#010101" width="0.73" height="6.04"/>
		</g>
		<g>
			<path fill="#010101" d="M39.03,30.25c-0.6,0-1.09-0.49-1.09-1.09c0-0.6,0.49-1.09,1.09-1.09s1.09,0.49,1.09,1.09
				C40.12,29.76,39.63,30.25,39.03,30.25z M39.03,28.8c-0.2,0-0.36,0.16-0.36,0.36c0,0.2,0.16,0.36,0.36,0.36s0.36-0.16,0.36-0.36
				C39.4,28.96,39.23,28.8,39.03,28.8z"/>
		</g>
		<g>
			<path fill="#010101" d="M27.04,30.25c-0.6,0-1.09-0.49-1.09-1.09c0-0.6,0.49-1.09,1.09-1.09c0.6,0,1.09,0.49,1.09,1.09
				C28.13,29.76,27.64,30.25,27.04,30.25z M27.04,28.8c-0.2,0-0.36,0.16-0.36,0.36c0,0.2,0.16,0.36,0.36,0.36
				c0.2,0,0.36-0.16,0.36-0.36C27.4,28.96,27.24,28.8,27.04,28.8z"/>
		</g>
		<g>
			<path fill="#010101" d="M30.31,23.34c-0.6,0-1.09-0.49-1.09-1.09c0-0.6,0.49-1.09,1.09-1.09c0.6,0,1.09,0.49,1.09,1.09
				C31.4,22.85,30.91,23.34,30.31,23.34z M30.31,21.89c-0.2,0-0.36,0.16-0.36,0.36c0,0.2,0.16,0.36,0.36,0.36s0.36-0.16,0.36-0.36
				C30.67,22.05,30.51,21.89,30.31,21.89z"/>
		</g>
		<g>
			<path fill="#010101" d="M35.4,23.71c-0.6,0-1.09-0.49-1.09-1.09s0.49-1.09,1.09-1.09s1.09,0.49,1.09,1.09S36,23.71,35.4,23.71z
				 M35.4,22.25c-0.2,0-0.36,0.16-0.36,0.36s0.16,0.36,0.36,0.36s0.36-0.16,0.36-0.36S35.6,22.25,35.4,22.25z"/>
		</g>
		<g>
			<rect x="27.76" y="28.8" fill="#010101" width="10.54" height="0.73"/>
		</g>
		<g>
			<rect x="37.94" y="15.71" fill="#010101" width="3.27" height="0.73"/>
		</g>
		<g>
			<path fill="#010101" d="M40.55,22.29l-0.59-0.42c0.34-0.47,1.44-2.24,1.6-5.09l0.73,0.04C42.11,19.86,40.91,21.78,40.55,22.29z"
				/>
		</g>
		<g>
			<path fill="#010101" d="M41.55,15.38c-0.26-2.85-2.05-4.6-2.59-5.07l0.48-0.55c0.59,0.51,2.55,2.43,2.84,5.56L41.55,15.38z"/>
		</g>
		<g>
			<path fill="#010101" d="M39.76,23.71c-0.6,0-1.09-0.49-1.09-1.09s0.49-1.09,1.09-1.09c0.6,0,1.09,0.49,1.09,1.09
				S40.36,23.71,39.76,23.71z M39.76,22.25c-0.2,0-0.36,0.16-0.36,0.36s0.16,0.36,0.36,0.36c0.2,0,0.36-0.16,0.36-0.36
				S39.96,22.25,39.76,22.25z"/>
		</g>
		<g>
			<path fill="#010101" d="M38.67,10.62c-0.6,0-1.09-0.49-1.09-1.09c0-0.6,0.49-1.09,1.09-1.09s1.09,0.49,1.09,1.09
				C39.76,10.13,39.27,10.62,38.67,10.62z M38.67,9.17c-0.2,0-0.36,0.16-0.36,0.36c0,0.2,0.16,0.36,0.36,0.36s0.36-0.16,0.36-0.36
				C39.03,9.33,38.87,9.17,38.67,9.17z"/>
		</g>
		<g>
			<path fill="#010101" d="M21.58,9.89c-0.6,0-1.09-0.49-1.09-1.09c0-0.6,0.49-1.09,1.09-1.09c0.6,0,1.09,0.49,1.09,1.09
				C22.68,9.4,22.19,9.89,21.58,9.89z M21.58,8.44c-0.2,0-0.36,0.16-0.36,0.36c0,0.2,0.16,0.36,0.36,0.36c0.2,0,0.36-0.16,0.36-0.36
				C21.95,8.6,21.79,8.44,21.58,8.44z"/>
		</g>
		<g>
			<path fill="#010101" d="M26.31,10.62c-0.6,0-1.09-0.49-1.09-1.09c0-0.6,0.49-1.09,1.09-1.09c0.6,0,1.09,0.49,1.09,1.09
				C27.4,10.13,26.91,10.62,26.31,10.62z M26.31,9.17c-0.2,0-0.36,0.16-0.36,0.36c0,0.2,0.16,0.36,0.36,0.36
				c0.2,0,0.36-0.16,0.36-0.36C26.67,9.33,26.51,9.17,26.31,9.17z"/>
		</g>
		<g>
			
				<rect x="23.02" y="12.8" transform="matrix(0.0996 -0.995 0.995 0.0996 10.2634 37.6712)" fill="#010101" width="5.86" height="0.73"/>
		</g>
		<g>
			
				<rect x="23.22" y="9.06" transform="matrix(0.8944 -0.4472 0.4472 0.8944 -3.2352 11.8981)" fill="#010101" width="0.73" height="7.49"/>
		</g>
		<g>
			<rect x="38.31" y="12.8" fill="#010101" width="0.73" height="0.73"/>
		</g>
		<g>
			<rect x="32.85" y="15.35" fill="#010101" width="0.73" height="0.73"/>
		</g>
		<g>
			<rect x="29.58" y="17.89" fill="#010101" width="0.73" height="0.73"/>
		</g>
		<g>
			<rect x="23.04" y="21.53" fill="#010101" width="0.73" height="0.73"/>
		</g>
		<g>
			<rect x="25.22" y="24.8" fill="#010101" width="0.73" height="0.73"/>
		</g>
		<g>
			<rect x="23.77" y="24.8" fill="#010101" width="0.73" height="0.73"/>
		</g>
		<g>
			<rect x="24.49" y="24.07" fill="#010101" width="0.73" height="0.73"/>
		</g>
		<g>
			<rect x="24.49" y="25.52" fill="#010101" width="0.73" height="0.73"/>
		</g>
		<g>
			<rect x="34.67" y="8.44" fill="#010101" width="0.73" height="0.73"/>
		</g>
		<g>
			<rect x="34.67" y="9.89" fill="#010101" width="0.73" height="0.73"/>
		</g>
		<g>
			<rect x="35.4" y="9.17" fill="#010101" width="0.73" height="0.73"/>
		</g>
		<g>
			<rect x="33.94" y="9.17" fill="#010101" width="0.73" height="0.73"/>
		</g>
		<g>
			<rect x="41.58" y="24.8" fill="#010101" width="0.73" height="0.73"/>
		</g>
		<g>
			<rect x="21.22" y="13.89" fill="#010101" width="0.73" height="0.73"/>
		</g>
		<g>
			<rect x="33.94" y="25.16" fill="#010101" width="0.73" height="0.73"/>
		</g>
		<g>
			<rect x="31.04" y="27.34" fill="#010101" width="0.73" height="0.73"/>
		</g>
	</g>
</g>
<g>
	<g>
		<g>
			<path fill="#FCD770" d="M32.83,19.92l-0.47,2.34c-0.16,0.82-0.38,1.63-0.66,2.41l-4.41-4.41c0.78-0.27,1.59-0.49,2.41-0.66
				l2.34-0.47c0.22,0,0.41,0.09,0.55,0.23C32.74,19.51,32.83,19.7,32.83,19.92z"/>
		</g>
		<g>
			<path fill="#E7E9ED" d="M27.29,20.26c-2.65,0.91-5.06,2.41-7.05,4.41c-1.08,1.08-2.03,2.29-2.81,3.6
				c-0.17,0.28-0.33,0.57-0.48,0.86l5.91,5.88c0.18-0.09,0.17-0.19,0.56-0.29v0c1.57-0.82,2.73-1.82,3.91-3
				c1.29-1.29,2.36-2.76,3.22-4.36c0.46-0.86,0.85-1.76,1.16-2.69L27.29,20.26z"/>
		</g>
		<g>
			<path fill="#E7E9ED" d="M28.51,35.99v0.13c0,0.71-0.14,1.41-0.41,2.05c-0.27,0.64-0.66,1.23-1.16,1.74
				c-0.6,0.6-1.29,1.1-2.03,1.49l-1.81-1.81c0.33-0.63,0.74-1.22,1.22-1.75c0.09-0.1,0.18-0.19,0.27-0.29c1-1,2.36-1.57,3.79-1.57
				H28.51z"/>
		</g>
		<g>
			<path fill="#E7E9ED" d="M18.71,30.89c0.03-0.03,0.06-0.06,0.09-0.09c0.94-0.94,2.22-1.47,3.56-1.47h0.27v0.27
				c0,0.67-0.13,1.32-0.38,1.92c-0.25,0.6-0.62,1.16-1.09,1.63c-0.03,0.03-0.06,0.06-0.09,0.09c-0.49,0.46-1.04,0.83-1.65,1.09
				l-1.8-1.8C17.88,31.94,18.25,31.38,18.71,30.89z"/>
		</g>
		<g>
			<path fill="#71CFED" d="M26.16,23.05c1.52,0,2.74,1.23,2.74,2.74c0,1.52-1.23,2.74-2.74,2.74c-1.52,0-2.74-1.23-2.74-2.74
				C23.42,24.28,24.65,23.05,26.16,23.05z"/>
		</g>
		<g>
			<circle fill="#51C1E9" cx="26.16" cy="25.8" r="1.18"/>
		</g>
		<g>
			<path fill="#F48270" d="M24.91,41.4c-0.04,0.02-0.09,0.04-0.13,0.07c-0.79,0.4-1.65,0.67-2.54,0.79
				c0.13-0.94,0.43-1.84,0.86-2.67L24.91,41.4z"/>
		</g>
		<g>
			<path fill="#AAB2BD" d="M24.32,37.84L24.32,37.84c-0.47,0.54-0.89,1.13-1.22,1.76l-3.19-3.19l2.12-0.99
				c0.27-0.13,0.54-0.26,0.8-0.4c0.18-0.09,0.35-0.19,0.53-0.29L24.32,37.84z"/>
		</g>
		<g>
			<path fill="#CDD2D9" d="M21.07,33.24l1.76,1.76c-0.26,0.14-0.53,0.27-0.8,0.4l-2.12,0.99l-0.8,0.37l-0.39-0.39l-1.56-1.56l0,0
				c0.78,0,1.56-0.16,2.26-0.47C20.02,34.08,20.58,33.71,21.07,33.24z"/>
		</g>
		<g>
			<path fill="#F48270" d="M19.42,34.34c-0.71,0.31-1.48,0.47-2.26,0.47l0,0l0,0v0c0-0.75,0.15-1.49,0.43-2.17
				c0.01-0.03,0.03-0.06,0.04-0.09L19.42,34.34z"/>
		</g>
		<g>
			<path fill="#CDD2D9" d="M16.95,29.13l1.76,1.76c-0.46,0.49-0.83,1.04-1.09,1.65c-0.02,0.03-0.03,0.06-0.04,0.09
				c-0.28,0.68-0.43,1.42-0.43,2.17v0l-1.57-1.57l-0.39-0.39l0.5-1.07l0.87-1.85C16.68,29.66,16.81,29.39,16.95,29.13z"/>
		</g>
		<g>
			<path fill="#AAB2BD" d="M18.71,36.38l-2,1.33c-0.1-0.64-0.4-1.2-0.83-1.63c-0.44-0.44-1-0.74-1.63-0.83l1.33-2l1.57,1.57l0,0
				L18.71,36.38z"/>
		</g>
		<g>
			<path fill="#AAB2BD" d="M14.12,27.25l3.31,1.02c-0.17,0.28-0.33,0.57-0.48,0.86c-0.14,0.26-0.27,0.53-0.4,0.8l-0.87,1.85
				l-3.32-3.32C13,28.14,13.59,27.73,14.12,27.25L14.12,27.25z"/>
		</g>
		<g>
			<path fill="#F48270" d="M16.72,37.71c0.03,0.15,0.04,0.31,0.04,0.47c0,1.27-0.8,2.4-1.99,2.81l-4.67,1.65
				c-0.22,0-0.41-0.09-0.55-0.23c-0.14-0.14-0.23-0.34-0.23-0.55l1.65-4.67c0.21-0.6,0.6-1.09,1.09-1.44
				c0.49-0.35,1.09-0.55,1.72-0.55c0.16,0,0.32,0.01,0.47,0.04c0.64,0.1,1.2,0.4,1.63,0.83C16.32,36.51,16.62,37.08,16.72,37.71z"/>
		</g>
		<g>
			<path fill="#FCD770" d="M16.36,37.4c0,0.77-0.49,1.45-1.21,1.71l-3.56,1.26l1.26-3.56c0.25-0.72,0.94-1.21,1.71-1.21
				C15.55,35.6,16.36,36.41,16.36,37.4z"/>
		</g>
		<g>
			<path fill="#E7E9ED" d="M15.97,23.05v0.13c0,1.42-0.56,2.78-1.57,3.79c-0.09,0.09-0.19,0.18-0.29,0.27
				c-0.53,0.48-1.12,0.89-1.75,1.22l-1.81-1.81c0.39-0.74,0.89-1.43,1.49-2.03c0.5-0.5,1.09-0.89,1.74-1.16
				c0.64-0.27,1.34-0.41,2.05-0.41H15.97z"/>
		</g>
		<g>
			<path fill="#F48270" d="M12.37,28.47c-0.83,0.43-1.73,0.73-2.67,0.86c0.13-0.89,0.4-1.75,0.79-2.54
				c0.02-0.04,0.04-0.09,0.07-0.13L12.37,28.47z"/>
		</g>
	</g>
	<g>
		<g>
			<path fill="#010101" d="M22.98,33.58l-0.4-0.68c0.4-0.24,0.8-0.49,1.19-0.77l0.45,0.64C23.82,33.07,23.4,33.34,22.98,33.58z"/>
		</g>
		<g>
			<path fill="#010101" d="M24.77,32.38l-0.48-0.62c0.57-0.44,1.11-0.91,1.62-1.42c0.28-0.28,0.55-0.57,0.81-0.88l0.59,0.51
				c-0.27,0.32-0.56,0.62-0.85,0.92C25.93,31.42,25.36,31.92,24.77,32.38z"/>
		</g>
		<g>
			<path fill="#010101" d="M19.02,37.24l-4.31-4.31l1.48-3.17c0.93-2,2.2-3.81,3.76-5.38c2.65-2.65,5.99-4.44,9.66-5.17l2.42-0.48
				c0.65,0,1.18,0.53,1.18,1.18l-0.01,0.08l-0.47,2.34c-0.73,3.67-2.52,7.01-5.17,9.66c-1.56,1.56-3.37,2.83-5.38,3.76L19.02,37.24z
				 M15.66,32.77l3.53,3.53l2.67-1.25c1.92-0.9,3.65-2.11,5.15-3.61c2.54-2.54,4.25-5.74,4.96-9.26l0.46-2.3
				c-0.02-0.19-0.17-0.34-0.36-0.36l-2.3,0.46c-3.52,0.7-6.72,2.42-9.26,4.96l0,0c-1.5,1.5-2.71,3.23-3.61,5.15L15.66,32.77z"/>
		</g>
		<g>
			
				<rect x="16.51" y="36.65" transform="matrix(0.8321 -0.5547 0.5547 0.8321 -17.5737 16.0474)" fill="#010101" width="2.4" height="0.78"/>
		</g>
		<g>
			
				<rect x="13.71" y="33.85" transform="matrix(0.5547 -0.8321 0.8321 0.5547 -21.8524 27.6584)" fill="#010101" width="2.4" height="0.78"/>
		</g>
		<g>
			<path fill="#010101" d="M10.95,41.01l1.53-4.34c0.31-0.88,1.14-1.47,2.08-1.47c1.21,0,2.2,0.99,2.2,2.2
				c0,0.93-0.59,1.77-1.47,2.08L10.95,41.01z M14.55,35.99c-0.6,0-1.14,0.38-1.34,0.94l-0.99,2.79l2.79-0.99
				c0.57-0.2,0.94-0.74,0.94-1.34C15.97,36.62,15.34,35.99,14.55,35.99z"/>
		</g>
		<g>
			<path fill="#010101" d="M10.16,43.04h-0.07c-0.65,0-1.18-0.53-1.18-1.18V41.8l1.67-4.74c0.48-1.35,1.76-2.25,3.18-2.25
				c1.86,0,3.38,1.51,3.38,3.38c0,1.43-0.91,2.71-2.25,3.18L10.16,43.04z M9.7,41.92c0.02,0.17,0.16,0.31,0.33,0.33l4.6-1.62
				c1.03-0.36,1.73-1.35,1.73-2.44c0-1.43-1.16-2.59-2.59-2.59c-1.1,0-2.08,0.7-2.44,1.73L9.7,41.92z"/>
		</g>
		<g>
			
				<rect x="23.45" y="34.65" transform="matrix(0.9558 -0.2941 0.2941 0.9558 -9.614 8.6145)" fill="#010101" width="0.78" height="3.26"/>
		</g>
		<g>
			
				<rect x="22.02" y="35.36" transform="matrix(0.7071 -0.7071 0.7071 0.7071 -20.9428 27.2399)" fill="#010101" width="0.78" height="7.08"/>
		</g>
		<g>
			<path fill="#010101" d="M21.78,42.72l0.07-0.52c0.26-1.85,1.14-3.6,2.46-4.93c1.07-1.07,2.55-1.68,4.06-1.68h0.53v0.53
				c0,1.51-0.61,2.99-1.68,4.06c-1.32,1.32-3.07,2.2-4.93,2.46L21.78,42.72z M28.12,36.39c-1.21,0.07-2.38,0.58-3.24,1.45
				c-1.07,1.07-1.82,2.46-2.14,3.94c1.48-0.32,2.87-1.07,3.94-2.14C27.53,38.77,28.05,37.6,28.12,36.39z"/>
		</g>
		<g>
			<path fill="#010101" d="M17.15,35.2l0-0.4l-0.4,0c0-1.62,0.63-3.14,1.78-4.29c1.02-1.02,2.38-1.59,3.83-1.59h0.66v0.66
				c0,1.45-0.56,2.81-1.59,3.83C20.29,34.57,18.77,35.2,17.15,35.2z M22.24,29.72c-1.19,0.03-2.31,0.51-3.15,1.36
				c-0.9,0.9-1.44,2.07-1.53,3.33c1.26-0.1,2.43-0.63,3.33-1.53C21.73,32.03,22.21,30.91,22.24,29.72z"/>
		</g>
		<g>
			
				<rect x="15.39" y="26.03" transform="matrix(0.2941 -0.9558 0.9558 0.2941 -15.3918 34.6773)" fill="#010101" width="0.78" height="3.46"/>
		</g>
		<g>
			
				<rect x="12.73" y="25.59" transform="matrix(0.7071 -0.7071 0.7071 0.7071 -16.8182 17.8365)" fill="#010101" width="0.78" height="7.25"/>
		</g>
		<g>
			<path fill="#010101" d="M9.24,29.79l0.07-0.52c0.26-1.85,1.14-3.6,2.46-4.93c1.07-1.07,2.55-1.68,4.06-1.68h0.53v0.53
				c0,1.51-0.61,2.99-1.68,4.06c-1.32,1.32-3.07,2.2-4.93,2.46L9.24,29.79z M15.57,23.45c-1.21,0.07-2.38,0.58-3.24,1.45
				c-1.07,1.07-1.82,2.46-2.14,3.94c1.48-0.32,2.87-1.07,3.94-2.14C14.99,25.83,15.51,24.66,15.57,23.45z"/>
		</g>
		<g>
			
				<rect x="18.13" y="32.17" transform="matrix(0.7071 -0.7071 0.7071 0.7071 -18.2222 22.8893)" fill="#010101" width="0.78" height="2.54"/>
		</g>
		<g>
			
				<rect x="21.56" y="32.88" transform="matrix(0.7071 -0.7071 0.7071 0.7071 -17.7028 25.5157)" fill="#010101" width="0.78" height="2.5"/>
		</g>
		<g>
			
				<rect x="17.44" y="28.76" transform="matrix(0.7071 -0.7071 0.7071 0.7071 -15.9984 21.4011)" fill="#010101" width="0.78" height="2.5"/>
		</g>
		<g>
			
				<rect x="29.1" y="19.34" transform="matrix(0.7071 -0.7071 0.7071 0.7071 -7.2462 27.4371)" fill="#010101" width="0.78" height="6.25"/>
		</g>
		<g>
			<path fill="#010101" d="M26.16,28.93c-1.73,0-3.14-1.41-3.14-3.14s1.41-3.14,3.14-3.14c1.73,0,3.14,1.41,3.14,3.14
				S27.89,28.93,26.16,28.93z M26.16,23.44c-1.3,0-2.35,1.06-2.35,2.35s1.06,2.35,2.35,2.35c1.3,0,2.35-1.06,2.35-2.35
				S27.46,23.44,26.16,23.44z"/>
		</g>
		<g>
			<path fill="#010101" d="M26.16,27.36c-0.86,0-1.57-0.7-1.57-1.57s0.7-1.57,1.57-1.57s1.57,0.7,1.57,1.57S27.03,27.36,26.16,27.36
				z M26.16,25.01c-0.43,0-0.78,0.35-0.78,0.78s0.35,0.78,0.78,0.78c0.43,0,0.78-0.35,0.78-0.78S26.59,25.01,26.16,25.01z"/>
		</g>
	</g>
</g>
</svg>
